Coordinates
version=1
nRows=10
nColumns=22
inDegrees=yes

Units are S.I. units (second, meters, Newtons, ...)
If the header above contains a line with 'inDegrees', this indicates whether rotational values are in degrees (yes) or radians (no).

endheader
time	pelvis_tilt	pelvis_list	pelvis_rotation	pelvis_tx	pelvis_ty	pelvis_tz	hip_flexion_r	hip_adduction_r	hip_rotation_r	knee_angle_r	ankle_angle_r	subtalar_angle_r	hip_flexion_l	hip_adduction_l	hip_rotation_l	knee_angle_l	ankle_angle_l	subtalar_angle_l	lumbar_extension	lumbar_bending	lumbar_rotation
      0.80000000	    -14.44868329	      1.72389483	    -15.97544072	     -0.98436522	      0.95796669	     -0.10154869	     28.23937911	      0.61896298	     -2.31024978	    -32.90629723	     27.09311322	     -3.90703001	     29.28321956	     -0.19755334	     -3.13908902	    -32.85368146	     24.82105791	     -2.34056463	     -2.94866947	      1.35915762	      6.17963129
      0.81000000	    -14.50208519	      1.66942551	    -16.01104777	     -0.98165436	      0.95774215	     -0.10114763	     28.05273797	      0.71711025	     -2.18882292	    -32.86907483	     27.71570147	     -3.92004313	     29.18083190	     -0.24295195	     -3.10783723	    -32.95291595	     25.20196650	     -2.33743112	     -2.82274141	      1.40855958	      6.17206613
      0.82000000	    -14.53408147	      1.58998633	    -16.06015285	     -0.97874345	      0.95757556	     -0.10067630	     27.80860176	      0.84700156	     -2.03846168	    -32.79850705	     28.29568965	     -3.90550069	     29.02915185	     -0.31465243	     -3.09350107	    -33.04218455	     25.61497580	     -2.35661122	     -2.71422289	      1.48005119	      6.17928958
      0.83000000	    -14.54114183	      1.49403248	    -16.12690625	     -0.97563863	      0.95746517	     -0.10010623	     27.51495597	      1.00502826	     -1.84170835	    -32.71380736	     28.82163280	     -3.86714613	     28.81590025	     -0.40115311	     -3.07974347	    -33.10108037	     26.03290908	     -2.42514255	     -2.62273637	      1.55502990	      6.18913450
      0.84000000	    -14.56819911	      1.41761851	    -16.18621074	     -0.97235405	      0.95728353	     -0.09954467	     27.23787110	      1.14182405	     -1.65003418	    -32.62939139	     29.33277434	     -3.86828710	     28.62143949	     -0.46627258	     -3.06770692	    -33.16709493	     26.46033997	     -2.52489045	     -2.48557269	      1.61811355	      6.20305246
      0.85000000	    -14.60927332	      1.35205684	    -16.23822419	     -0.96889062	      0.95703809	     -0.09896618	     26.97047225	      1.26700547	     -1.46309605	    -32.55123309	     29.82470835	     -3.89115623	     28.43416399	     -0.51636792	     -3.04407370	    -33.23446778	     26.89773178	     -2.61960618	     -2.31180090	      1.67188196	      6.21116285
      0.86000000	    -14.65407918	      1.29400615	    -16.28658060	     -0.96525372	      0.95674801	     -0.09837524	     26.70175316	      1.38341585	     -1.26909489	    -32.47766619	     30.28523134	     -3.91771003	     28.24007247	     -0.54754076	     -2.99419332	    -33.29961451	     27.33863609	     -2.70525258	     -2.11839280	      1.71873654	      6.21060491
      0.87000000	    -14.65674643	      1.21151282	    -16.35090360	     -0.96138175	      0.95652084	     -0.09772624	     26.36002079	      1.51737834	     -1.05677416	    -32.38544578	     30.69092592	     -3.92257408	     27.96163980	     -0.59020933	     -2.94036594	    -33.33144048	     27.78746015	     -2.85040941	     -1.96435995	      1.78336312	      6.20630459
      0.88000000	    -14.71034926	      1.17574115	    -16.38634968	     -0.95737655	      0.95610820	     -0.09712340	     26.09454307	      1.59686300	     -0.88330765	    -32.32761726	     31.10685832	     -3.94812231	     27.76120723	     -0.57710109	     -2.84512153	    -33.40019758	     28.24454602	     -2.91003255	     -1.72437095	      1.80845418	      6.18855311
      0.89000000	    -14.74001870	      1.12262711	    -16.42926640	     -0.95314995	      0.95570018	     -0.09648892	     25.78361671	      1.68301695	     -0.71582840	    -32.26046995	     31.47779418	     -3.95691489	     27.51044627	     -0.57175691	     -2.75049675	    -33.45862766	     28.71565902	     -2.98926122	     -1.50254532	      1.85161070	      6.16962766
